PathFileType	4	(X/Y/Z)	c:/Users/goper/Files/vsCode/490R/osim_files/C07/C07_SSWS_01.trc
DataRate	CameraRate	NumFrames	NumMarkers	Units                	OrigDataRate	OrigDataStartFrame	OrigNumFrames
250.00	250.00	4	36	mm	250.0	2320	3092
                Frame#	Time	LPSIS			LASIS			LTH1			LTH2			LTH3			LTH4			LLFE			LMFE			LSH1			LSH2			LSH3			LSH4			LLMAL			LMMAL			LCAL			LMTP5			LTOE			LMTP1			RPSIS			RASIS			RTH1			RTH2			RTH3			RTH4			RLFE			RMFE			RSH1			RSH2			RSH3			RSH4			RLMAL			RMMAL			RCAL			RMTP1			RTOE			RMTP5		
		X1	Y1	Z1	X2	Y2	Z2	X3	Y3	Z3	X4	Y4	Z4	X5	Y5	Z5	X6	Y6	Z6	X7	Y7	Z7	X8	Y8	Z8	X9	Y9	Z9	X10	Y10	Z10	X11	Y11	Z11	X12	Y12	Z12	X13	Y13	Z13	X14	Y14	Z14	X15	Y15	Z15	X16	Y16	Z16	X17	Y17	Z17	X18	Y18	Z18	X19	Y19	Z19	X20	Y20	Z20	X21	Y21	Z21	X22	Y22	Z22	X23	Y23	Z23	X24	Y24	Z24	X25	Y25	Z25	X26	Y26	Z26	X27	Y27	Z27	X28	Y28	Z28	X29	Y29	Z29	X30	Y30	Z30	X31	Y31	Z31	X32	Y32	Z32	X33	Y33	Z33	X34	Y34	Z34	X35	Y35	Z35	X36	Y36	Z36

2320	9.27600	-1161.58130	996.40173	283.08636	-1333.00171	980.74060	357.92422	-1306.70593	780.83270	407.71127	-1330.71387	705.49451	405.53488	-1355.32739	634.96332	394.81696	-1403.42505	731.89124	380.96414	-1363.65320	510.45438	374.71225	-1355.39832	494.40268	253.67453	-1380.07837	318.03479	382.20984	-1375.21631	271.68143	366.86386	-1415.95483	333.90295	368.05511	-1423.37634	290.41977	361.19492	-1421.38379	99.67866	321.03693	-1440.20801	127.64156	249.41000	-1366.41785	44.34108	272.98007	-1552.55457	38.26475	341.45822	-1607.42651	54.34365	286.07190	-1574.21155	42.46897	235.67120	-1165.42603	998.89893	182.27571	-1323.27893	959.35229	104.10680	-1255.67456	810.97870	52.68299	-1246.61670	732.57288	51.54720	-1236.41663	651.43439	58.85807	-1318.03162	724.55603	81.86333	-1188.64124	480.13998	86.73528	-1200.24280	486.59024	202.27452	-1025.84937	378.79724	85.85567	-1017.53369	321.31946	81.84011	-1073.27014	340.25339	84.21565	-1043.35107	307.59277	90.36480	-884.24994	207.94809	131.89873	-918.08252	197.06937	208.98129	-813.91461	205.14639	186.28247	-944.84607	56.01620	226.60088	-962.59698	55.63434	179.88037	-921.19946	55.21936	117.23066
2321	9.28000	-1166.39075	997.46765	283.23874	-1338.04297	981.77875	358.08151	-1311.33472	781.76886	407.46027	-1335.18066	706.42395	405.11145	-1359.28870	635.80396	394.32901	-1408.05615	732.56287	380.55603	-1366.52271	510.99722	374.79239	-1358.12622	495.03058	253.94122	-1381.59900	318.30371	382.20490	-1376.32996	271.91214	367.05402	-1417.56226	333.97662	368.14026	-1425.48364	289.97327	359.38745	-1421.55151	99.71841	320.89102	-1440.36365	127.63231	249.37003	-1366.40894	44.35463	272.98587	-1552.59204	38.26673	341.39017	-1607.46594	54.18984	285.96048	-1574.24097	42.31905	235.59894	-1169.88855	999.71356	182.58426	-1327.55298	959.89087	104.41844	-1261.31628	810.94934	52.96374	-1253.40649	732.34424	51.49484	-1243.93359	651.10541	58.43777	-1324.84131	725.12958	81.85537	-1198.18494	479.55435	86.06636	-1210.17102	485.94608	201.70712	-1034.65259	380.16885	85.04900	-1025.72656	322.49832	81.52142	-1081.59399	341.02820	83.75726	-1051.06714	308.73322	90.04354	-891.19891	211.48428	131.72627	-924.32092	200.30605	208.33696	-820.43921	211.25330	185.79118	-947.42596	58.49029	226.21552	-965.19952	57.12792	179.41338	-923.58801	58.08078	116.89009
2322	9.28400	-1171.15234	998.59857	283.57452	-1343.02600	982.72729	358.22885	-1315.95483	782.69696	407.21780	-1339.46069	707.21918	404.79099	-1363.29517	636.45032	393.92722	-1412.48120	733.16071	380.26285	-1369.37341	511.58521	374.88187	-1360.72791	495.61444	254.17873	-1382.98181	318.54318	382.34210	-1377.52136	272.31235	367.15417	-1419.03186	333.98807	368.31058	-1426.11902	289.67032	359.26315	-1421.78284	99.65983	320.70731	-1440.51318	127.63071	249.31799	-1366.43250	44.37120	273.00583	-1552.64453	38.26517	341.37561	-1607.46814	54.04763	285.85056	-1574.29810	42.18805	235.55035	-1174.27734	1000.37567	182.96434	-1331.58984	960.51715	104.66116	-1266.97534	810.93335	53.22386	-1260.17053	732.13867	51.45874	-1251.76111	650.77612	58.18283	-1331.76624	725.77631	81.84962	-1207.85522	478.89288	85.56547	-1219.91589	485.16888	201.23360	-1043.65002	381.65836	84.36712	-1034.12683	323.65598	81.24007	-1090.04456	341.81543	83.39651	-1059.12012	310.04517	89.59225	-898.26953	215.60120	131.25232	-930.66608	203.60127	207.80016	-827.19348	217.63541	184.88731	-950.07532	61.03458	225.82918	-967.67255	58.43756	178.84554	-926.36536	61.19461	116.48667
2323	9.28800	-1175.53015	999.84088	283.77145	-1348.15637	983.72766	358.37918	-1320.41846	783.58411	406.96295	-1343.73486	708.03503	404.47470	-1366.75867	637.13708	393.58514	-1416.71082	733.57770	380.02817	-1372.16626	512.03143	375.01816	-1363.32654	496.32709	254.47275	-1384.49634	318.82025	382.50916	-1379.26379	272.52756	367.70905	-1420.64380	334.06857	368.47607	-1427.31067	289.66147	359.37115	-1421.93677	99.75550	320.86407	-1440.63489	127.64936	249.25360	-1366.45813	44.37840	273.03033	-1552.67017	38.27449	341.39352	-1606.89392	53.55316	286.50888	-1574.32434	42.08335	235.51424	-1178.58484	1001.09558	183.38928	-1335.87646	961.17719	104.90264	-1272.67664	810.82776	53.58836	-1266.98730	731.98444	51.40154	-1259.74194	650.41736	58.08055	-1338.67578	726.50500	81.96621	-1217.49109	478.51196	85.08835	-1229.33667	484.42947	201.02043	-1052.66785	383.22650	83.69813	-1042.69604	325.06158	80.97626	-1098.56128	342.80795	82.97783	-1067.04150	311.33096	89.31161	-905.53229	219.74319	130.73056	-937.38000	207.04460	207.22951	-834.40082	223.94838	184.03929	-953.02612	63.70401	225.43280	-970.62427	59.88760	178.50490	-929.23083	64.39361	116.11829
